<!DOCTYPE svg PUBLIC "-//W3C//DTD SVG 1.1//EN" "http://www.w3.org/Graphics/SVG/1.1/DTD/svg11.dtd">

<!-- Uploaded to: SVG Repo, www.svgrepo.com, Transformed by: SVG Repo Mixer Tools -->
<svg fill="#000000" width="256px" height="256px" viewBox="-12 -12 74.00 74.00" xmlns="http://www.w3.org/2000/svg" xmlns:xlink="http://www.w3.org/1999/xlink" stroke="#0e628f" stroke-width="0.0005">

<g id="SVGRepo_bgCarrier" stroke-width="0">

<rect x="-12" y="-12" width="74.00" height="74.00" rx="37" fill="#ff3333" strokewidth="0"/>

</g>

<g id="SVGRepo_tracerCarrier" stroke-linecap="round" stroke-linejoin="round"/>

<g id="SVGRepo_iconCarrier">

<path d="M10.585938 11L0.5859375 21L49.414062 21L39.414062 11L10.585938 11 z M 0 22L0 28L50 28L50 22L0 22 z M 3 29L3 50L9 50L9 29L3 29 z M 11 29L11 43L17 43L17 29L11 29 z M 33 29L33 43L39 43L39 29L33 29 z M 41 29L41 50L47 50L47 29L41 29 z"/>

</g>

</svg>