<?xml version="1.0" encoding="UTF-8"?>
<svg version="1.1" xmlns="http://www.w3.org/2000/svg" width="1024" height="1024">
<path d="M0 0 C337.92 0 675.84 0 1024 0 C1024 337.92 1024 675.84 1024 1024 C686.08 1024 348.16 1024 0 1024 C0 686.08 0 348.16 0 0 Z " fill="#ff3333" transform="translate(0,0)"/>
<path d="M0 0 C337.92 0 675.84 0 1024 0 C1024 337.92 1024 675.84 1024 1024 C686.08 1024 348.16 1024 0 1024 C0 686.08 0 348.16 0 0 Z M443 75 C441.2665332 75.27287842 441.2665332 75.27287842 439.49804688 75.55126953 C400.81941697 81.6748387 362.69146227 92.87759485 327 109 C325.99066406 109.45455566 324.98132813 109.90911133 323.94140625 110.37744141 C285.95646029 127.65679807 249.93756041 150.75984036 219.15625 179.02734375 C217.13758366 180.87413089 215.07916159 182.65948681 213 184.4375 C208.08970574 188.71035241 203.56639171 193.36656502 199 198 C196.4182571 200.59413527 193.82383489 203.17173638 191.203125 205.7265625 C184.6407027 212.14433104 178.70906399 218.80080511 173 226 C172.00642611 227.20650665 171.0101635 228.41080238 170.01171875 229.61328125 C152.36888753 250.91808487 137.4357159 273.84285424 124 298 C123.52062988 298.86012695 123.04125977 299.72025391 122.54736328 300.60644531 C99.9558935 341.52881094 84.79650748 386.98586899 77 433 C76.81453613 434.06814941 76.62907227 435.13629883 76.43798828 436.23681641 C68.90308527 480.05770648 68.23061226 525.90171062 74 570 C74.16097168 571.28535645 74.32194336 572.57071289 74.48779297 573.89501953 C80.81925584 623.12959395 95.86943052 672.22226182 119.0390625 716.16796875 C120.05418473 718.10330341 121.04344995 720.05059157 122.03125 722 C138.49268637 754.17032833 159.9549894 784.9163137 184.5859375 811.375 C186.50194268 813.45842311 188.35456659 815.56947082 190.19921875 817.71484375 C194.40600858 822.53828244 198.90268504 827.04929655 203.4375 831.5625 C204.24509766 832.37396484 205.05269531 833.18542969 205.88476562 834.02148438 C210.76100053 838.88986072 215.76709341 843.51973828 221 848 C222.04828931 848.92548381 223.09524192 849.85248469 224.140625 850.78125 C247.43872885 871.26203055 273.74184173 889.20620104 301 904 C302.40983154 904.77053711 302.40983154 904.77053711 303.84814453 905.55664062 C352.59797168 932.04035532 405.56548488 947.58388634 460.4375 954.6875 C461.34709473 954.80697998 462.25668945 954.92645996 463.19384766 955.04956055 C479.44814584 957.04984443 495.76946888 957.23759541 512.125 957.25 C513.70155869 957.25200912 513.70155869 957.25200912 515.30996704 957.25405884 C533.06908621 957.24917566 550.38528519 956.32371238 568 954 C569.48306641 953.8158252 569.48306641 953.8158252 570.99609375 953.62792969 C621.96215174 947.28338955 670.26643745 931.04232135 716 908 C716.86222168 907.56945312 717.72444336 907.13890625 718.61279297 906.6953125 C749.59021403 891.15772112 778.1457534 869.96405211 804 847 C804.98355469 846.12859375 805.96710937 845.2571875 806.98046875 844.359375 C814.34560396 837.73231347 821.35985944 830.74280489 828.375 823.75 C828.84953613 823.2781427 829.32407227 822.8062854 829.81298828 822.32012939 C835.43398588 816.72322596 840.86089081 811.04197094 846 805 C846.85722656 804.02417969 847.71445312 803.04835938 848.59765625 802.04296875 C895.94237615 747.19512367 926.68344788 680.15234376 943 610 C943.22026855 609.06188477 943.44053711 608.12376953 943.66748047 607.15722656 C955.85864757 554.62718504 956.79555233 498.25694874 949 445 C948.84515137 443.88222168 948.69030273 442.76444336 948.53076172 441.61279297 C947.56202299 434.69644902 946.37510669 427.84677016 945 421 C944.78037598 419.89833496 944.56075195 418.79666992 944.33447266 417.66162109 C930.39398094 349.52593407 899.08858971 283.03165733 854 230 C853.55479004 229.47132324 853.10958008 228.94264648 852.65087891 228.39794922 C842.64199114 216.51387585 832.21199111 205.1371058 821.25 194.125 C820.55302002 193.42334717 819.85604004 192.72169434 819.13793945 191.9987793 C814.58797996 187.46284125 809.87996357 183.17714621 805 179 C803.99084959 178.12243704 802.98173209 177.24483621 801.97265625 176.3671875 C738.87807937 122.3345163 662.21126034 87.17944598 580 75 C578.95714844 74.81953125 577.91429687 74.6390625 576.83984375 74.453125 C555.3071135 70.78561482 533.52775248 70.59517729 511.75 70.625 C511.0240501 70.6250919 510.2981002 70.62518379 509.55015182 70.62527847 C487.13187901 70.62894192 465.14918357 71.24992259 443 75 Z " fill="#080808" transform="translate(0,0)"/>
<path d="M0 0 C24.82642127 -0.07016619 49.65282761 -0.12302546 74.47932816 -0.15543652 C86.0074114 -0.17088736 97.53543293 -0.19194278 109.06347656 -0.22631836 C119.1145217 -0.25627531 129.16552213 -0.27558796 139.21661067 -0.28226548 C144.53567081 -0.28616707 149.85460308 -0.29529916 155.17362213 -0.31719017 C160.18700562 -0.33765482 165.20020938 -0.34381372 170.21363068 -0.33932304 C172.04691547 -0.3401438 173.88020671 -0.34604967 175.7134552 -0.35761642 C190.74187164 -0.44773208 203.77671633 0.26215232 215.2265625 11.109375 C222.7602809 19.05402349 224.64302703 26.36707652 224.53993225 37.09931946 C224.32274137 43.28261722 223.22064594 48.63117715 221.3046875 54.49609375 C220.75322021 56.25588372 220.20220424 58.01581517 219.65161133 59.77587891 C219.23427231 61.08978607 219.23427231 61.08978607 218.8085022 62.43023682 C217.59440503 66.28915299 216.45615809 70.1693993 215.31640625 74.05078125 C210.05030652 91.82682792 204.66210005 109.56700218 199.10324097 127.25375366 C198.45710391 129.31536526 197.81535402 131.37835759 197.17825317 133.44277954 C191.64730791 151.33628516 185.88861387 163.53365792 170.5 174.75 C169.81655518 175.25587646 169.13311035 175.76175293 168.42895508 176.28295898 C164.87462441 178.90925746 161.30166406 181.50998769 157.73046875 184.11328125 C157.05113281 184.60924805 156.37179687 185.10521484 155.671875 185.61621094 C154.37858797 186.55880842 153.08311405 187.49841492 151.78515625 188.43457031 C150.1757412 189.60352321 148.58660573 190.80027089 147 192 C146.43639771 192.42555679 145.87279541 192.85111359 145.29211426 193.28956604 C143.36925308 195.83495012 143.90640294 197.52605032 144.31445312 200.64428711 C144.45887344 201.81037003 144.60329376 202.97645294 144.75209045 204.1778717 C144.9267131 205.44819748 145.10133575 206.71852325 145.28125 208.02734375 C145.45281716 209.36081734 145.62295072 210.69447608 145.79173279 212.02830505 C146.24757644 215.59704375 146.72392316 219.16276775 147.20438766 222.72826385 C147.69562791 226.3995102 148.16804131 230.07317788 148.64282227 233.74658203 C150.84267133 250.69881562 153.10186949 267.64632165 155.5390625 284.56616211 C155.81169922 286.46313843 155.81169922 286.46313843 156.08984375 288.3984375 C156.24316162 289.44692871 156.39647949 290.49541992 156.55444336 291.57568359 C157.13515141 296.03870335 157.55216951 300.52169507 158 305 C136.88 305 115.76 305 94 305 C90.45046471 284.88596668 90.45046471 284.88596668 89.0703125 275.49609375 C88.90379181 274.36626572 88.73727112 273.23643768 88.56570435 272.07237244 C86.54366882 258.13520546 84.8338265 244.15950788 83.13342285 230.18029785 C82.78708449 227.34202468 82.43651442 224.50428029 82.08605576 221.66651344 C80.55030783 209.22278019 79.02412805 196.77635455 77.6953125 184.30859375 C77.60635712 183.5195314 77.51740173 182.73046906 77.42575073 181.91749573 C77.03693769 178.09931321 76.68765993 174.65088023 78 171 C79.59130859 169.53369141 79.59130859 169.53369141 81.6484375 168.3515625 C82.40108887 167.90731934 83.15374023 167.46307617 83.92919922 167.00537109 C84.73631348 166.54984863 85.54342773 166.09432617 86.375 165.625 C88.03157547 164.65159535 89.68782668 163.67763865 91.34375 162.703125 C92.5503125 162.00413086 92.5503125 162.00413086 93.78125 161.29101562 C102.65178672 156.12955016 110.90165618 150.29519695 119 144 C120.010625 143.22011719 121.02125 142.44023437 122.0625 141.63671875 C123.031875 140.86972656 124.00125 140.10273438 125 139.3125 C125.86625 138.62800781 126.7325 137.94351563 127.625 137.23828125 C132.69993062 132.45549302 134.92284956 127.06469571 136.953125 120.578125 C137.34553123 119.36342026 137.34553123 119.36342026 137.74586487 118.12417603 C138.59003988 115.50237482 139.42051395 112.8764818 140.25 110.25 C140.82715923 108.44269252 141.40488043 106.63556442 141.9831543 104.82861328 C143.40621755 100.37267789 144.81694267 95.9129417 146.2243042 91.45202637 C147.14928975 88.52808511 148.08471491 85.6075701 149.02145386 82.68737793 C149.96054612 79.75267332 150.88648867 76.81385387 151.8125 73.875 C152.3089502 72.32474121 152.3089502 72.32474121 152.81542969 70.74316406 C154.91219956 64.01054608 154.91219956 64.01054608 155 57 C153.22015595 53.8640843 152.47691793 53.15897264 149 52 C147.66471193 51.91455709 146.32556112 51.88225375 144.98754883 51.88647461 C144.18694534 51.88655014 143.38634186 51.88662567 142.56147766 51.88670349 C141.27227669 51.89444542 141.27227669 51.89444542 139.95703125 51.90234375 C139.0734343 51.9037587 138.18983734 51.90517365 137.27946472 51.90663147 C134.45710872 51.91222931 131.63483203 51.92478139 128.8125 51.9375 C126.89908969 51.94251528 124.98567813 51.94707814 123.07226562 51.95117188 C118.38147986 51.96219803 113.69075337 51.97946117 109 52 C106.22869902 60.77068562 103.45792821 69.54153867 100.6875 78.3125 C100.48121098 78.96558136 100.27492195 79.61866272 100.06238174 80.29153442 C95.09297854 96.02420598 90.12736257 111.75802243 85.1875 127.5 C78.03785996 150.27761728 70.80301668 173.02823841 63.57539368 195.78120422 C61.70097714 201.68201904 59.82679898 207.58290956 57.95278549 213.48385239 C57.5268322 214.82510519 57.10087042 216.16635531 56.67490005 217.50760269 C47.41612822 246.66110681 38.20403476 275.8291479 29 305 C7.88 305 -13.24 305 -35 305 C-32.0639602 295.01746467 -29.12898246 285.08086677 -25.91796875 275.19140625 C-25.54679428 274.04178909 -25.17561981 272.89217194 -24.79319763 271.7077179 C-24.00225742 269.25867689 -23.21035473 266.80994654 -22.4175415 264.36151123 C-21.15893009 260.4742612 -19.90291812 256.58618093 -18.64794922 252.69775391 C-18.43569702 252.04012558 -18.22344482 251.38249725 -18.00476074 250.7049408 C-17.57437832 249.37144565 -17.14400674 248.03794701 -16.71364594 246.70444489 C-16.06582282 244.69741122 -15.41773678 242.69046261 -14.76959229 240.68353271 C-10.70198946 228.08689886 -6.65800183 215.48275202 -2.625 202.875 C-2.29847443 201.85450562 -1.97194885 200.83401123 -1.63552856 199.78259277 C3.37626743 184.11592607 8.3619255 168.44103374 13.31396484 152.75537109 C16.20676778 143.60141257 19.13911918 134.46080056 22.09216499 125.32608795 C25.8443826 113.71899793 29.56584852 102.10277615 33.24609375 90.47265625 C33.46068993 89.79477617 33.6752861 89.1168961 33.89638519 88.4184742 C35.85899326 82.2186749 37.82005783 76.0183891 39.77807617 69.81713867 C40.87060829 66.35731355 41.96521538 62.89815056 43.06111336 59.43939018 C43.66472477 57.53227302 44.26604664 55.62443168 44.86729431 53.71656799 C46.7606607 47.743595 48.72535242 41.83896934 51 36 C50.34257812 35.78988281 49.68515625 35.57976562 49.0078125 35.36328125 C44.88385087 33.49410903 41.49685381 30.88296104 37.875 28.1875 C30.56719096 22.82074523 23.16216703 17.6322945 15.63427734 12.57885742 C10.26185551 8.94768323 4.93462145 5.21594484 0 1 C0 0.67 0 0.34 0 0 Z " fill="#080808" transform="translate(208,347)"/>
<path d="M0 0 C22.6444365 -0.07014841 45.28885502 -0.12301676 67.93337822 -0.15543652 C78.4481355 -0.17089112 88.96282518 -0.19195376 99.47753906 -0.22631836 C108.64447581 -0.25626377 117.81136359 -0.27558522 126.9783479 -0.28226548 C131.83009793 -0.28616903 136.68170789 -0.29531359 141.53341293 -0.31719017 C146.10521737 -0.33763657 150.67682476 -0.34381738 155.24867058 -0.33932304 C156.92154068 -0.34014461 158.59441775 -0.34606151 160.26724815 -0.35761642 C174.06198752 -0.44818379 184.93385784 1.05936605 195.6875 10.3125 C203.39576018 19.27074831 205.96698907 28.02929692 205.22921753 39.86688232 C204.83634701 43.52296853 203.89692334 46.99674735 202.921875 50.53515625 C202.70186325 51.35083572 202.4818515 52.1665152 202.25517273 53.00691223 C199.38362474 63.48362523 196.09028348 73.83252935 192.8125 84.1875 C192.1456031 86.30431959 191.47910368 88.42126444 190.81298828 90.53833008 C189.81483401 93.71017683 188.81627822 96.88189177 187.81585693 100.05302429 C185.84875536 106.28988432 183.89990538 112.53196663 181.97265625 118.78125 C181.52308276 120.23544907 181.07345898 121.68963259 180.6237793 123.14379883 C179.82305777 125.73359716 179.02696632 128.32465817 178.23364258 130.91674805 C170.90979884 154.54582409 170.90979884 154.54582409 161 164 C160.28714844 164.69738281 159.57429687 165.39476562 158.83984375 166.11328125 C153.06669183 171.50923994 146.65698238 175.78178075 140 180 C139.21012695 180.50208984 138.42025391 181.00417969 137.60644531 181.52148438 C132.08115746 185.03059241 126.54482304 188.52185205 121 192 C125.0125182 215.78528847 129.21620661 239.53462137 133.48388672 263.27539062 C135.28831627 273.32246487 137.09214537 283.36970435 138.80078125 293.43359375 C138.92543259 294.15531265 139.05008392 294.87703156 139.17851257 295.62062073 C139.71454446 298.82353169 140 301.73629671 140 305 C118.22 305 96.44 305 74 305 C72.2365625 290.76875 72.2365625 290.76875 70.4375 276.25 C67.37998794 251.68636608 64.19277044 227.14500772 60.84538269 202.61895752 C60.71335953 201.65157654 60.58133636 200.68419556 60.4453125 199.6875 C60.31856644 198.75959656 60.19182037 197.83169312 60.06123352 196.87567139 C58.9796571 188.92445382 57.96969035 180.9656233 57 173 C63.22172351 168.5788942 69.52184089 164.29197773 75.875 160.0625 C76.65738037 159.54099365 77.43976074 159.0194873 78.24584961 158.48217773 C81.63390984 156.22688215 85.02470289 153.97733487 88.44140625 151.765625 C95.34714157 147.26384187 101.77177029 142.4030384 108 137 C109.04027344 136.12214844 109.04027344 136.12214844 110.1015625 135.2265625 C117.93360058 128.12773649 120.04152826 117.12771267 123.109375 107.34375 C123.48104797 106.16083374 123.85272095 104.97791748 124.23565674 103.75915527 C125.0144438 101.27230323 125.79083542 98.78469987 126.56494141 96.29638672 C127.74776012 92.50717555 128.9499246 88.72443588 130.15234375 84.94140625 C130.91006046 82.51339696 131.66661049 80.0850232 132.421875 77.65625 C132.96083405 75.97613831 132.96083405 75.97613831 133.51068115 74.26208496 C136.49717471 64.77414057 136.49717471 64.77414057 136 55 C131.24794892 50.4277175 125.7709997 50.81614724 119.515625 50.68359375 C118.70003113 50.66281265 117.88443726 50.64203156 117.04412842 50.62062073 C114.44616895 50.55538703 111.84811087 50.49636232 109.25 50.4375 C107.485667 50.39428986 105.72134387 50.35067478 103.95703125 50.30664062 C99.63812116 50.19973255 95.31911216 50.09839173 91 50 C90.83269882 50.70573151 90.66539764 51.41146301 90.49302673 52.13858032 C88.5495986 60.14222598 86.23043586 67.98274843 83.75390625 75.8359375 C83.34273151 77.14836666 82.93185537 78.46088941 82.52125549 79.77349854 C81.43132444 83.25475754 80.33714831 86.73466796 79.24204254 90.21430206 C78.0929968 93.86784929 76.94790288 97.52263508 75.80224609 101.17724609 C70.81704331 117.07399841 65.81582499 132.96576817 60.78808594 148.84912109 C54.88286053 167.50749043 49.02484921 186.18074181 43.16029263 204.85192394 C41.96894265 208.64480417 40.77747554 212.4376476 39.5859375 216.23046875 C39.35044756 216.98007936 39.11495762 217.72968998 38.87233162 218.50201607 C35.78009302 228.34443629 32.68222531 238.18505992 29.57696724 248.02338028 C28.59874648 251.12290298 27.62109324 254.22260471 26.64331055 257.32226562 C25.21944375 261.83584224 23.79354213 266.34876881 22.36645508 270.86132812 C21.72208603 272.90361998 21.0777944 274.94593627 20.43359375 276.98828125 C20.15742218 277.85939041 19.88125061 278.73049957 19.59671021 279.62800598 C16.94269768 288.05387417 14.49442552 296.51895323 12 305 C-8.79 305 -29.58 305 -51 305 C-48.75026202 293.75131008 -48.75026202 293.75131008 -47.40625 289.62866211 C-47.10339584 288.68992249 -46.80054169 287.75118286 -46.48851013 286.78399658 C-45.99919762 285.29570343 -45.99919762 285.29570343 -45.5 283.77734375 C-45.15256241 282.70450134 -44.80512482 281.63165894 -44.44715881 280.52630615 C-43.69623355 278.20910146 -42.94286222 275.89268829 -42.18728638 273.57699585 C-40.34513334 267.93007824 -38.51813256 262.27826173 -36.69075203 256.62655067 C-36.05454614 254.65935952 -35.41771207 252.69237238 -34.78086853 250.72538757 C-30.47014256 237.40187905 -26.26307661 224.04609466 -22.0625 210.6875 C-15.80656324 190.80795179 -9.46526053 170.95759809 -3.0625 151.125 C4.31743732 128.27149068 4.31743732 128.27149068 11.5625 105.375 C11.86108917 104.42163254 11.86108917 104.42163254 12.16571045 103.44900513 C13.00588641 100.76568627 13.84552548 98.08219988 14.6847229 95.39857483 C18.01187057 84.76035651 21.34934467 74.12538485 24.69650173 63.49344635 C25.93047671 59.57344333 27.16145274 55.65251596 28.39015388 51.7308569 C29.34198739 48.69600749 30.2982942 45.66256759 31.25390625 42.62890625 C31.60235596 41.51396286 31.95080566 40.39901947 32.30981445 39.25028992 C32.79756348 37.70629265 32.79756348 37.70629265 33.29516602 36.13110352 C33.57731461 35.23295425 33.8594632 34.33480499 34.15016174 33.40943909 C34.94437364 31.15771039 35.87978271 29.10553711 37 27 C36.46503906 26.75765625 35.93007813 26.5153125 35.37890625 26.265625 C32.38150277 24.67094728 29.68114459 22.73722659 26.9375 20.75 C26.34694824 20.32468994 25.75639648 19.89937988 25.14794922 19.46118164 C23.09524939 17.97873453 21.0473018 16.48989278 19 15 C18.17161621 14.39849121 17.34323242 13.79698242 16.48974609 13.17724609 C13.86482674 11.26852346 11.24419525 9.35406819 8.625 7.4375 C7.77413818 6.8177832 6.92327637 6.19806641 6.04663086 5.55957031 C4.86725952 4.69283691 4.86725952 4.69283691 3.6640625 3.80859375 C2.95717285 3.29095459 2.2502832 2.77331543 1.52197266 2.23999023 C1.01972168 1.83079346 0.5174707 1.42159668 0 1 C0 0.67 0 0.34 0 0 Z " fill="#080808" transform="translate(449,347)"/>
<path d="M0 0 C2.1231504 -0.00270225 4.24629958 -0.00659072 6.3694458 -0.01159668 C10.7902012 -0.01745213 15.21063053 -0.009054 19.63134766 0.00976562 C25.26861238 0.03260879 30.90511732 0.01937256 36.54235458 -0.00452423 C40.91611361 -0.01904182 45.28969513 -0.01434991 49.66345978 -0.00401306 C51.74127546 -0.00136514 53.81910782 -0.00454653 55.89690399 -0.01393127 C69.83732331 -0.0631218 82.49759108 0.05668857 93.671875 9.55078125 C102.29269676 18.22291743 104.96380133 27.49653471 105.01800537 39.44633484 C104.85463416 48.31236045 102.43734218 56.41265375 99.890625 64.84375 C99.44069618 66.39850766 98.99277346 67.95384728 98.546875 69.50976562 C91.59435868 93.57751632 91.59435868 93.57751632 89.640625 95.53125 C87.70756002 95.62521057 85.77103662 95.64868517 83.83569336 95.64477539 C82.59448227 95.64469986 81.35327118 95.64462433 80.07444763 95.64454651 C78.7097876 95.63943911 77.34512798 95.6342231 75.98046875 95.62890625 C74.59184317 95.627042 73.20321693 95.62561813 71.81459045 95.62461853 C68.15341385 95.62079387 64.4922767 95.61096403 60.83111572 95.59991455 C57.09770237 95.58969932 53.36428266 95.58512067 49.63085938 95.58007812 C42.30076323 95.56934171 34.97069964 95.55226591 27.640625 95.53125 C28.15799692 91.50145331 28.75411949 87.71158519 30.05078125 83.859375 C34.70766592 70.96796593 34.70766592 70.96796593 34.640625 57.53125 C32.59489002 54.03645274 31.02376692 53.64877556 27.1640625 52.46484375 C22.04274263 51.24495605 17.00992703 51.16346362 11.765625 51.15625 C10.83621094 51.13175781 9.90679688 51.10726562 8.94921875 51.08203125 C0.96318469 51.04861688 -5.29112174 53.18070367 -12.171875 57.15625 C-18.28270029 63.79086032 -20.76338775 73.16023118 -23.36328125 81.60546875 C-23.72283401 82.74949661 -24.08238678 83.89352448 -24.45283508 85.07221985 C-25.61743571 88.78520567 -26.76985328 92.5018441 -27.921875 96.21875 C-28.73495363 98.82404908 -29.55043895 101.4285934 -30.36572266 104.03320312 C-32.70959735 111.52864071 -35.03615722 119.02938297 -37.359375 126.53125 C-37.92134855 128.34327356 -38.48335604 130.15528659 -39.04541016 131.96728516 C-41.62799976 140.30024562 -44.18931619 148.63963104 -46.74134827 156.98199463 C-50.45257905 169.1105214 -54.18301935 181.23315692 -57.91217995 193.35618019 C-59.28239171 197.81067825 -60.65178307 202.26542731 -62.02045441 206.7203989 C-62.87957997 209.51636646 -63.73929733 212.31215181 -64.59915924 215.10789299 C-65.00273936 216.42050729 -65.40608018 217.73319519 -65.80916595 219.04596138 C-66.36772334 220.8649093 -66.92724993 222.68355952 -67.48681641 224.50219727 C-67.80147858 225.52595963 -68.11614075 226.54972198 -68.44033813 227.60450745 C-69.08673938 229.6630212 -69.76183897 231.71263446 -70.45761108 233.75498962 C-71.31563831 236.39659787 -71.65741738 238.45734411 -71.671875 241.21875 C-71.69701172 242.33830078 -71.69701172 242.33830078 -71.72265625 243.48046875 C-71.25088067 246.14371799 -70.50577289 246.9085919 -68.359375 248.53125 C-62.55669544 251.4617979 -56.70122922 250.73268184 -50.359375 250.53125 C-49.66070313 250.51723145 -48.96203125 250.50321289 -48.2421875 250.48876953 C-34.51285238 250.43665015 -34.51285238 250.43665015 -22.78675842 244.07733154 C-18.80216104 239.60760261 -16.85806887 235.43883109 -15.16796875 229.734375 C-14.90062424 228.88332184 -14.63327972 228.03226868 -14.35783386 227.15542603 C-13.48728451 224.36895807 -12.64181594 221.57557893 -11.796875 218.78125 C-11.19520669 216.83567946 -10.59215833 214.89053521 -9.98779297 212.94580078 C-8.41061628 207.85329606 -6.85613137 202.7541602 -5.3081665 197.65270996 C-4.35910189 194.53035147 -3.40400449 191.40990409 -2.44677734 188.29003906 C-0.61855115 182.33102784 1.20211805 176.36975722 3.015625 170.40625 C3.30229034 169.46366333 3.58895569 168.52107666 3.88430786 167.54992676 C4.68940703 164.89630873 5.49015574 162.24142554 6.2890625 159.5859375 C6.64892998 158.39999496 6.64892998 158.39999496 7.0160675 157.19009399 C8.2141687 153.42704641 8.2141687 153.42704641 8.640625 149.53125 C6.23594096 147.73905135 3.82591577 146.05969349 1.328125 144.40625 C-0.13745956 143.41776415 -1.60229945 142.42817333 -3.06640625 141.4375 C-3.7929541 140.94765625 -4.51950195 140.4578125 -5.26806641 139.953125 C-8.16625911 137.9826517 -11.01730824 135.95699621 -13.859375 133.90625 C-14.7359375 133.27460938 -15.6125 132.64296875 -16.515625 131.9921875 C-17.42828125 131.26902344 -17.42828125 131.26902344 -18.359375 130.53125 C-18.359375 130.20125 -18.359375 129.87125 -18.359375 129.53125 C14.310625 129.53125 46.980625 129.53125 80.640625 129.53125 C74.78424752 148.85729567 68.91744496 168.17642842 62.953125 187.46875 C58.72059966 201.16048899 54.52377585 214.86071181 50.453125 228.6015625 C50.11468063 229.74144119 49.77623627 230.88131989 49.42753601 232.05574036 C47.80859398 237.51011083 46.19763148 242.96659703 44.60083008 248.42749023 C38.03572571 270.70398055 30.29551412 288.74829532 9.49609375 300.76953125 C1.3242794 304.82150584 -7.13223322 305.97813049 -16.14819336 305.91943359 C-17.67250725 305.92731903 -17.67250725 305.92731903 -19.22761536 305.93536377 C-22.55164445 305.94845359 -25.87518568 305.93986411 -29.19921875 305.9296875 C-31.5312967 305.93171155 -33.86337403 305.93462574 -36.19544983 305.93838501 C-41.06973327 305.9427936 -45.94385113 305.93642507 -50.81811523 305.92236328 C-57.03943809 305.90528207 -63.26037229 305.91511551 -69.48168087 305.93308067 C-74.29377626 305.94396622 -79.10578085 305.94045015 -83.9178791 305.9326973 C-86.21060801 305.93070797 -88.50334538 305.93310957 -90.79606438 305.94013596 C-121.89699391 306.01454227 -121.89699391 306.01454227 -134.359375 295.53125 C-142.40060307 286.52102503 -144.21143368 277.08071202 -143.83666992 265.29077148 C-143.48872954 259.24639379 -142.05533394 253.75155847 -140.34375 247.96484375 C-139.87706657 246.34546654 -139.87706657 246.34546654 -139.4009552 244.69337463 C-136.22300561 233.80104388 -132.71612469 223.01761322 -129.13775635 212.25137329 C-127.25316018 206.58034475 -125.38685213 200.90329817 -123.51953125 195.2265625 C-123.15426331 194.11732925 -122.78899536 193.00809601 -122.41265869 191.86524963 C-119.51578343 183.05108329 -116.71710748 174.20997408 -113.984375 165.34375 C-110.70536196 154.72657646 -107.25762101 144.17757682 -103.70306396 133.64993286 C-97.81436761 116.1733941 -92.33310637 98.56563624 -86.81640625 80.96899414 C-83.42955195 70.17561977 -80.02606154 59.38968502 -76.46484375 48.65234375 C-76.04516327 47.38139862 -76.04516327 47.38139862 -75.61700439 46.08477783 C-70.15083352 29.74075508 -60.20626353 15.58363282 -44.734375 7.21875 C-29.95341647 0.62186168 -15.92565748 -0.07225751 0 0 Z " fill="#080808" transform="translate(756.359375,346.46875)"/>
<path d="M0 0 C55.77 0 111.54 0 169 0 C168.67 0.66 168.34 1.32 168 2 C114.21 2 60.42 2 5 2 C4.67 2.66 4.34 3.32 4 4 C2.68 2.68 1.36 1.36 0 0 Z " fill="#080808" transform="translate(449,347)"/>
<path d="M0 0 C32.67 0 65.34 0 99 0 C98.01 2.97 97.02 5.94 96 9 C95 6 95 6 96 2 C64.65 2 33.3 2 1 2 C0.67 1.34 0.34 0.68 0 0 Z " fill="#080808" transform="translate(738,476)"/>
<path d="M0 0 C29.37 0 58.74 0 89 0 C89 0.33 89 0.66 89 1 C79.33021932 1.77107017 69.73905775 2.13354232 60.03648758 2.07516479 C57.85068042 2.06212179 55.66493546 2.05581887 53.47909546 2.05102539 C48.86103481 2.03976293 44.24302791 2.02043641 39.625 2 C34.21900208 1.97635232 28.81303117 1.95605869 23.40699387 1.94406128 C21.25254223 1.93757818 19.09817856 1.9250882 16.9437561 1.91235352 C15.65085663 1.90905029 14.35795715 1.90574707 13.02587891 1.90234375 C11.88309479 1.89710693 10.74031067 1.89187012 9.56289673 1.88647461 C7.06686509 1.70809393 7.06686509 1.70809393 6 3 C6.99 3.99 7.98 4.98 9 6 C4.69127714 4.56375905 3.45397435 3.45397435 0 0 Z " fill="#080808" transform="translate(208,347)"/>
<path d="M0 0 C0.66 0.33 1.32 0.66 2 1 C0.37660195 2.70884005 -1.29319053 4.37446717 -3 6 C-3.66 6 -4.32 6 -5 6 C-5.2475 6.5775 -5.495 7.155 -5.75 7.75 C-8.09569997 11.97225994 -10.12048983 13.70682994 -14.75 15.25 C-15.8225 15.4975 -16.895 15.745 -18 16 C-14.46598313 11.46101788 -10.80512302 8.03287786 -6.1875 4.625 C-5.59001953 4.17511719 -4.99253906 3.72523438 -4.37695312 3.26171875 C-2.92271849 2.1681343 -1.4620285 1.08314264 0 0 Z " fill="#ff3333" transform="translate(243,159)"/>
<path d="M0 0 C4.29 0 8.58 0 13 0 C8.5 3.375 8.5 3.375 4.25 3.1875 C3.45078125 3.16042969 2.6515625 3.13335938 1.828125 3.10546875 C1.22484375 3.07066406 0.6215625 3.03585937 0 3 C0 2.01 0 1.02 0 0 Z " fill="#ff3333" transform="translate(528,954)"/>
<path d="M0 0 C0.33 0 0.66 0 1 0 C1 2.64 1 5.28 1 8 C0.34 8 -0.32 8 -1 8 C-1 8.99 -1 9.98 -1 11 C-1.66 11 -2.32 11 -3 11 C-2.01 7.37 -1.02 3.74 0 0 Z " fill="#080808" transform="translate(422,573)"/>
<path d="M0 0 C0.66 0.33 1.32 0.66 2 1 C2 3.64 2 6.28 2 9 C1.01 8.67 0.02 8.34 -1 8 C-0.67 5.36 -0.34 2.72 0 0 Z " fill="#ff3333" transform="translate(950,545)"/>
<path d="M0 0 C0.66 0.33 1.32 0.66 2 1 C-2.625 5.875 -2.625 5.875 -6 7 C-4.60667426 3.63279613 -3.0210714 2.0140476 0 0 Z " fill="#ff3333" transform="translate(243,159)"/>
</svg>
